<svg width="290" height="81" viewBox="0 0 290 81" fill="none" xmlns="http://www.w3.org/2000/svg">
<path d="M30.2931 58.68L23.5731 43.8L16.0531 58.68H30.2931ZM0.133125 73.56C0.826458 73.4533 1.35979 73.1067 1.73313 72.52C2.15979 71.9333 2.55979 71.2667 2.93313 70.52L17.7331 39.4C18.1065 38.7067 18.4265 38.0667 18.6931 37.48C19.0131 36.8933 19.1731 36.3867 19.1731 35.96C19.1731 35.4267 18.9865 35.0533 18.6131 34.84C18.2398 34.6267 17.8398 34.4667 17.4131 34.36V32.92H30.9331V34.36C30.5598 34.4667 30.1865 34.6267 29.8131 34.84C29.4398 35 29.2531 35.3733 29.2531 35.96C29.2531 36.3867 29.3331 36.8133 29.4931 37.24C29.7065 37.6667 29.9998 38.2267 30.3731 38.92L47.0131 71.48C47.2798 72.0667 47.6265 72.4933 48.0531 72.76C48.5331 73.0267 49.0665 73.2933 49.6531 73.56V75H35.5731V73.56C35.7865 73.56 36.0531 73.48 36.3731 73.32C36.6931 73.16 36.8531 72.92 36.8531 72.6C36.8531 72.0667 36.6398 71.3733 36.2131 70.52L33.1731 64.6H13.6531L10.7731 70.28C10.2398 71.4 9.97313 72.2 9.97313 72.68C9.97313 73.2667 10.4798 73.56 11.4931 73.56V75H0.133125V73.56ZM94.3725 41.24C93.6258 41.24 92.9592 41.8533 92.3725 43.08L80.6925 68.92C80.1058 70.3067 79.6525 71.24 79.3325 71.72C79.0658 72.2 78.9325 72.5733 78.9325 72.84C78.9325 73.16 79.4125 73.4 80.3725 73.56V75H68.2925V73.56C68.5592 73.4533 68.7992 73.3467 69.0125 73.24C69.2792 73.08 69.4125 72.8667 69.4125 72.6C69.4125 72.3333 69.2258 71.9067 68.8525 71.32C68.5325 70.7333 68.1325 69.9333 67.6525 68.92L55.4925 42.76C55.2792 42.28 54.9858 41.9067 54.6125 41.64C54.2925 41.3733 53.9725 41.24 53.6525 41.24V39.8H64.9325V41.24C64.2925 41.24 63.9725 41.5867 63.9725 42.28C63.9725 42.6533 64.1058 43.1867 64.3725 43.88C64.6925 44.52 65.0392 45.24 65.4125 46.04L74.6125 65.96L83.3325 46.6C83.9192 45.32 84.3725 44.36 84.6925 43.72C85.0125 43.08 85.1458 42.5733 85.0925 42.2C85.0392 41.56 84.6392 41.24 83.8925 41.24V39.8H94.3725V41.24ZM133.706 47.24C133.706 46.2267 132.879 45.72 131.226 45.72H111.706V53.72H124.026C124.932 53.72 125.599 53.6667 126.026 53.56C126.452 53.4 126.666 53.0267 126.666 52.44H128.106V60.92H126.506C126.666 60.3333 126.452 59.9867 125.866 59.88C125.279 59.72 124.452 59.64 123.386 59.64H111.706V69.08H132.186C132.826 69.08 133.359 68.9467 133.786 68.68C134.212 68.36 134.426 67.96 134.426 67.48H135.866V75.88H134.426C134.426 75.4 134.212 75.1333 133.786 75.08C133.359 75.0267 132.826 75 132.186 75H102.826V73.56C103.092 73.56 103.359 73.48 103.626 73.32C103.892 73.1067 104.026 72.7867 104.026 72.36V42.44C104.026 42.0133 103.892 41.72 103.626 41.56C103.359 41.3467 103.092 41.24 102.826 41.24V39.8H131.226C132.879 39.8 133.706 39.32 133.706 38.36H135.146V47.24H133.706ZM175.039 49.88C175.039 49.7733 175.012 49.6667 174.959 49.56C174.959 49.4533 174.959 49.32 174.959 49.16C174.959 48.8933 174.692 48.5467 174.159 48.12C173.625 47.64 172.852 47.1867 171.839 46.76C170.879 46.3333 169.732 45.9867 168.399 45.72C167.065 45.4 165.599 45.24 163.999 45.24C162.079 45.24 160.319 45.5067 158.719 46.04C157.172 46.52 155.812 47.2667 154.639 48.28C153.465 49.2933 152.559 50.5467 151.919 52.04C151.279 53.5333 150.959 55.24 150.959 57.16C150.959 59.08 151.305 60.8133 151.999 62.36C152.745 63.8533 153.705 65.16 154.879 66.28C156.052 67.3467 157.385 68.1733 158.879 68.76C160.372 69.2933 161.892 69.56 163.439 69.56C164.879 69.56 166.345 69.3733 167.839 69C169.332 68.6267 170.692 68.2 171.919 67.72C173.145 67.1867 174.132 66.6267 174.879 66.04C175.679 65.4533 176.079 64.92 176.079 64.44V63.8C176.079 63.48 176.052 63.2133 175.999 63L176.879 62.2L182.799 70.68L181.999 71.08C181.359 70.8133 180.905 70.68 180.639 70.68C180.212 70.68 179.519 70.92 178.559 71.4C177.599 71.88 176.372 72.44 174.879 73.08C173.439 73.6667 171.732 74.1733 169.759 74.6C167.839 75.0267 165.679 75.24 163.279 75.24C160.825 75.24 158.399 74.8933 155.999 74.2C153.599 73.5067 151.465 72.4133 149.599 70.92C147.732 69.3733 146.212 67.48 145.039 65.24C143.865 62.9467 143.279 60.3067 143.279 57.32C143.279 54.3333 143.865 51.72 145.039 49.48C146.212 47.24 147.759 45.3733 149.679 43.88C151.599 42.3333 153.785 41.1867 156.239 40.44C158.745 39.6933 161.305 39.32 163.919 39.32C165.945 39.32 167.785 39.5067 169.439 39.88C171.145 40.2533 172.639 40.68 173.919 41.16C175.199 41.64 176.265 42.0667 177.119 42.44C177.972 42.8133 178.585 43 178.959 43C179.225 43 179.439 42.92 179.599 42.76C179.812 42.6 180.025 42.4667 180.239 42.36L181.199 42.92L175.919 50.52L175.039 49.88ZM209.547 80.6H289.547V0.599999H209.547V80.6Z" fill="white"/>
</svg>
